<?xml version="1.0" encoding="utf-8"?>
<!-- Generator: Adobe Illustrator 25.0.0, SVG Export Plug-In . SVG Version: 6.00 Build 0)  -->
<svg version="1.1" id="Layer_1" xmlns="http://www.w3.org/2000/svg" xmlns:xlink="http://www.w3.org/1999/xlink" x="0px" y="0px"
	 viewBox="0 0 200 191.1" style="enable-background:new 0 0 200 191.1;" xml:space="preserve">
<style type="text/css">
	.st0{fill:#FFFFFF;}
</style>
<g>
	<path id="c2brOhInXq" class="st0" d="M148.1,94.7l-47.8,46.1L51.8,94.7l48.5-46.4L148.1,94.7z"/>
	<path id="d1munuSgY7" class="st0" d="M38.2,81.4l75.7-72.2L190.7,83v16.2l-76.8-73.3L46.4,89.6L38.2,81.4z"/>
	<path id="d1nTc4vR6Q" class="st0" d="M171.6,108.2l-76.1,73.9h17.1l76.1-73.9l-74.3-73l-9.3,8.1L171.6,108.2z"/>
	<path id="bGxH1xrLL" class="st0" d="M86.1,164L9.9,90.6v17.1l76.1,72.1l76.1-72.1l-9-8.5L86.1,164z"/>
	<path id="f2wX9V6lzL" class="st0" d="M29.7,81.5l75.4-74.8H88.8L11.3,81.5L86.1,154l9.4-8.6L29.7,81.5z"/>
	<path class="st0" d="M115.1,191.1h-32L0,109.4V79.6L83.1,0h32L200,81v28.4L115.1,191.1z M84.5,187.7h29.3l82.8-79.8V82.4l-82.8-79
		H84.5L3.4,81.1v26.9L84.5,187.7z"/>
</g>
</svg>
