<?xml version="1.0" encoding="utf-8"?>
<!-- Generator: Adobe Illustrator 25.0.0, SVG Export Plug-In . SVG Version: 6.00 Build 0)  -->
<svg version="1.1" id="Layer_1" xmlns="http://www.w3.org/2000/svg" xmlns:xlink="http://www.w3.org/1999/xlink" x="0px" y="0px"
	 viewBox="0 0 200 200" style="enable-background:new 0 0 200 200;" xml:space="preserve">
<style type="text/css">
	.st0{fill:#45274A;}
</style>
<g>
	<path id="c2brOhInXq" class="st0" d="M145.7,99.2L100.3,143L54.2,99.2l46.1-44.1L145.7,99.2z"/>
	<path id="d1munuSgY7" class="st0" d="M41.3,86.6L113.2,18l73,70.1v15.4l-73-69.6L49.1,94.3L41.3,86.6z"/>
	<path id="d1nTc4vR6Q" class="st0" d="M168,112l-72.3,70.2h16.2l72.4-70.2l-70.6-69.4l-8.8,7.7L168,112z"/>
	<path id="bGxH1xrLL" class="st0" d="M86.7,165L14.4,95.2v16.2l72.3,68.5l72.3-68.5l-8.5-8L86.7,165z"/>
	<path id="f2wX9V6lzL" class="st0" d="M33.3,86.7l71.6-71.1H89.3L15.7,86.7l71.1,68.9l8.9-8.1L33.3,86.7z"/>
	<path class="st0" d="M114.4,190.8H83.9L5,113.1V84.9L83.9,9.2h30.4L195,86.1v27L114.4,190.8z M85.3,187.5h27.8l78.7-75.8V87.5
		l-78.7-75H85.3L8.2,86.3v25.5L85.3,187.5z"/>
</g>
</svg>
